<?xml version="1.0" encoding="utf-8"?>
<!-- Generator: Adobe Illustrator 16.0.4, SVG Export Plug-In . SVG Version: 6.00 Build 0)  -->
<!DOCTYPE svg PUBLIC "-//W3C//DTD SVG 1.1//EN" "http://www.w3.org/Graphics/SVG/1.1/DTD/svg11.dtd">
<svg version="1.1" id="Layer_1" xmlns="http://www.w3.org/2000/svg" xmlns:xlink="http://www.w3.org/1999/xlink" x="0px" y="0px"
	 width="730px" height="271.824px" viewBox="0 0 730 271.824" enable-background="new 0 0 730 271.824" xml:space="preserve">
<g>
	<path d="M729.968,263.787L688.223,103.81l-12.218-45.323c-0.083-0.316-0.312-0.571-0.625-0.693l-3.481-1.332
		c-5.207-1.987-10.534-3.897-15.682-5.748l-6.895-2.482c-3.133-1.141-6.367-2.32-9.643-3.286c-2.342-0.691-4.283-1.202-4.283-1.202
		c-0.318-0.084-0.661-0.012-0.91,0.199c0,0-2.229,1.82-3.203,2.65l-34.32,29.373l-2.77-45.813c-0.027-0.445-0.342-0.825-0.773-0.933
		l-15.826-4.016c-5.484-1.391-11.088-2.754-17.131-4.165c-2.86-0.667-5.73-1.322-8.589-1.969c-1.479-0.333-4.345-0.94-4.345-0.94
		c-0.404-0.078-0.811,0.073-1.049,0.396c-0.137,0.188-12.604,17.335-20.054,27.449l-1.462-31.62
		c-0.026-0.432-0.309-0.805-0.723-0.931c-0.765-0.234-1.531-0.364-2.287-0.492l-0.541-0.093c-2.095-0.37-4.197-0.699-6.346-1.036
		c-3.822-0.596-7.639-1.222-11.452-1.855c-5.386-0.887-10.953-1.805-16.45-2.609l-7.176-1.031l-2.572-0.247
		c-0.435-0.035-0.856,0.202-1.039,0.603l-5.428,12.162c-1.012-4.925-3.36-8.758-6.884-11.204c-4.497-3.116-9.851-3.597-15.035-4.06
		l-1.229-0.115c-13.514-1.266-27.008-2.227-40.113-2.863c-1.199-0.053-2.447-0.147-3.73-0.241C401.568,0.173,399.104,0,396.633,0
		c-5.658,0-12.684,0.807-16.885,7.141c-4.836,7.293-7.529,15.449-10.133,23.335c-0.652,1.972-1.302,3.944-1.99,5.917l-7.123,20.499
		c-0.07,0.208-0.209,0.503-0.369,0.837L347.611,1.212c-0.112-0.483-0.555-0.802-1.043-0.809l-3.174,0.111
		c-8.467,0.299-17.072,0.75-25.395,1.191l-3.358,0.174c-3.341,0.178-6.679,0.422-10.021,0.663l-2.709,0.194
		c-0.436,0.035-0.804,0.337-0.921,0.759L284.02,66.904c-2.139-5.043-8.143-19.175-24.982-58.849
		c-0.186-0.422-0.624-0.667-1.072-0.619c0,0-4.539,0.53-5.439,0.656c-7.061,0.983-14.188,2.194-21.09,3.366l-6.086,1.026
		c-2.596,0.44-5.203,0.869-7.812,1.275c-2.289,0.355-4.559,0.786-6.746,1.286c-0.455,0.103-0.784,0.5-0.797,0.965l-1.35,34.957
		l-22.123-30.062c-0.242-0.329-0.664-0.492-1.056-0.396l-1.784,0.417c-4.682,1.078-10.289,2.37-14.666,3.442
		c-9.711,2.372-29.189,7.722-29.386,7.775c-0.425,0.114-0.728,0.492-0.755,0.935l-1.078,19.507l-5.311-5.098
		c-0.398-0.389-0.797-0.78-1.196-1.178c-1.817-1.812-3.696-3.688-6.145-4.809c-1.927-0.88-4.111-1.325-6.509-1.325
		c-2.541,0-5.328,0.476-8.779,1.501c-11.42,3.404-22.842,7.572-33.885,11.604l-3.139,1.147
		c-13.641,4.973-25.564,9.636-36.457,14.258c-5.209,2.206-10.615,4.851-14.869,9.231c-4.012,4.14-6.636,9.459-7.807,15.829
		c-0.859,4.705-1.207,9.57-1.54,14.276c-0.122,1.744-0.249,3.479-0.395,5.203c-0.401,4.637-0.812,9.262-1.22,13.895l-8.149,92.585
		c-0.419,4.88-0.835,9.761-1.349,14.634c-0.09,0.893-0.197,1.802-0.299,2.712c-0.585,5.128-1.189,10.436-0.297,15.538
		c1.018,5.836,4.389,9.906,9.244,11.172c2.354,0.611,4.826,0.725,7.217,0.831c0.783,0.037,1.561,0.07,2.324,0.123l64.508,4.427
		c9.062,0.608,18.125,1.22,27.186,1.879c1.099,0.082,2.231,0.211,3.371,0.344c1.959,0.223,3.981,0.458,5.975,0.458
		c1.225,0,2.321-0.084,3.447-0.288c1.213-0.351,122.182-34.688,229.596-34.688c3.93,0,7.859,0.043,11.658,0.132
		c108.531,2.604,143.975,6.087,243.09,34.332c1.783,0.513,3.955,0.462,6.215,0.284l50.164-3.413
		c10.711-0.727,21.668-1.148,32.266-1.553c10.611-0.41,21.588-0.83,32.328-1.56c0.307-0.018,0.585-0.175,0.768-0.421
		C729.984,264.398,730.044,264.081,729.968,263.787z"/>
	<g>
		<path fill="#FFFFFF" d="M339.867,7.741c2.916,13.705,5.846,27.518,8.805,41.457c2.972,14.039,5.971,28.192,8.996,42.465
			c3.047,14.383,6.115,28.885,9.199,43.508c3.109,14.732,6.248,29.602,9.406,44.584c-1.02,0-2.049,0-3.078-0.008
			c-1.027-0.006-2.049-0.01-3.076-0.012c-1.031,0.002-2.064,0.005-3.094,0.005c-1.027,0-2.057,0.006-3.073,0.018
			c-1.847,0.012-3.69,0.03-5.52,0.056c-1.837,0.021-3.677,0.058-5.517,0.095c-1.83,0.042-3.674,0.086-5.498,0.131
			c-1.846,0.055-3.676,0.121-5.52,0.179c-0.465-3.1-0.932-6.194-1.42-9.289c-0.466-3.091-0.941-6.176-1.419-9.249
			c-0.479-3.079-0.956-6.146-1.438-9.203c-0.471-3.063-0.945-6.125-1.428-9.173c-2.613,0.096-5.23,0.211-7.848,0.337
			c-2.621,0.123-5.242,0.264-7.865,0.422c-2.626,0.156-5.254,0.326-7.881,0.508c-2.624,0.177-5.251,0.368-7.885,0.581
			c-0.668,3.119-1.326,6.231-1.989,9.364c-0.653,3.142-1.329,6.279-1.993,9.425c-0.674,3.155-1.348,6.306-2.035,9.469
			c-0.668,3.167-1.35,6.333-2.023,9.508c-2.916,0.25-5.822,0.523-8.73,0.807c-2.904,0.292-5.816,0.593-8.729,0.915
			c-2.899,0.321-5.815,0.651-8.708,0.992c-2.908,0.35-5.815,0.702-8.719,1.064c3.899-15.467,7.779-30.808,11.621-45.994
			c3.817-15.078,7.6-30.027,11.365-44.836c3.737-14.702,7.434-29.272,11.106-43.714c3.65-14.328,7.264-28.536,10.851-42.616
			c2.764-0.211,5.537-0.404,8.3-0.578c2.764-0.181,5.534-0.347,8.29-0.488c2.763-0.151,5.523-0.287,8.279-0.404
			C334.354,7.945,337.11,7.833,339.867,7.741z M313.579,113.426c1.345-0.087,2.687-0.181,4.039-0.254
			c1.335-0.089,2.692-0.167,4.038-0.248c1.349-0.074,2.689-0.149,4.045-0.216c1.355-0.066,2.707-0.139,4.065-0.199
			c-0.638-2.794-1.261-5.591-1.89-8.381c-0.621-2.778-1.242-5.564-1.873-8.345c-0.621-2.771-1.234-5.538-1.863-8.31
			c-0.614-2.762-1.239-5.514-1.857-8.271c-0.721,2.831-1.447,5.663-2.164,8.5c-0.721,2.845-1.442,5.687-2.17,8.539
			c-0.723,2.85-1.443,5.711-2.178,8.574C315.037,107.685,314.316,110.549,313.579,113.426"/>
	</g>
	<g>
		<g>
			<path fill="#FFFFFF" d="M117.966,47.241c0.136,0,0.282,0,0.419,0.01c0.133,0,0.271,0.012,0.392,0.018
				c0.136,0.015,0.259,0.023,0.388,0.039c0.117,0.014,0.236,0.039,0.355,0.058c0.466,0.078,0.91,0.175,1.322,0.307
				c0.418,0.133,0.797,0.289,1.165,0.47c0.356,0.181,0.692,0.385,0.986,0.614c0.302,0.229,0.575,0.473,0.808,0.741
				c0.259,0.289,0.484,0.596,0.688,0.922c0.206,0.325,0.379,0.681,0.521,1.049c0.159,0.378,0.293,0.771,0.389,1.196
				c0.109,0.418,0.183,0.863,0.229,1.328c0.054,0.47,0.098,0.937,0.134,1.406c0.033,0.474,0.05,0.956,0.06,1.44
				c0.01,0.484,0.01,0.984,0,1.486c-0.01,0.5-0.036,1.011-0.066,1.526c-0.246,4.066-0.505,8.151-0.756,12.239
				c-0.25,4.101-0.51,8.202-0.756,12.319c-0.263,4.123-0.512,8.251-0.768,12.393c-0.258,4.145-0.515,8.306-0.77,12.473
				c-3.133,0.958-6.277,1.928-9.406,2.913c-3.141,0.988-6.273,2.003-9.392,3.028c-3.136,1.021-6.257,2.079-9.393,3.142
				c-3.129,1.067-6.247,2.155-9.376,3.258c0.174-2.4,0.339-4.802,0.512-7.199c0.166-2.391,0.332-4.783,0.508-7.181
				c0.174-2.393,0.342-4.782,0.514-7.17c0.166-2.378,0.334-4.763,0.496-7.149c0.057-0.688,0.08-1.314,0.061-1.88
				c-0.004-0.566-0.041-1.073-0.11-1.525c-0.069-0.446-0.173-0.834-0.306-1.162c-0.136-0.325-0.306-0.598-0.512-0.813
				c-0.082-0.085-0.176-0.169-0.289-0.236c-0.119-0.066-0.242-0.133-0.375-0.174c-0.146-0.048-0.303-0.082-0.475-0.106
				c-0.163-0.017-0.355-0.032-0.548-0.026c-0.253,0-0.519,0.025-0.812,0.06c-0.298,0.037-0.609,0.096-0.945,0.169
				c-0.339,0.078-0.697,0.175-1.086,0.289c-0.376,0.111-0.787,0.239-1.209,0.385c-1.516,0.549-3.02,1.109-4.533,1.664
				c-1.516,0.56-3.033,1.121-4.545,1.691c-1.511,0.566-3.029,1.141-4.539,1.72c-1.521,0.578-3.039,1.167-4.557,1.755
				c-0.761,0.299-1.451,0.593-2.076,0.914c-0.619,0.304-1.172,0.629-1.654,0.948c-0.488,0.329-0.91,0.673-1.259,1.016
				c-0.349,0.349-0.62,0.708-0.833,1.078c-0.216,0.359-0.416,0.759-0.596,1.205c-0.179,0.446-0.334,0.934-0.474,1.452
				c-0.137,0.528-0.249,1.098-0.349,1.699c-0.098,0.603-0.173,1.249-0.223,1.923c-0.646,8.119-1.289,16.282-1.934,24.48
				c-0.654,8.23-1.299,16.489-1.963,24.785c-0.654,8.33-1.321,16.699-1.976,25.1c-0.669,8.433-1.345,16.905-2.017,25.424
				c-0.056,0.711-0.086,1.365-0.086,1.96c0.01,0.589,0.036,1.132,0.097,1.604c0.066,0.474,0.151,0.894,0.274,1.251
				c0.123,0.353,0.264,0.646,0.445,0.886c0.066,0.09,0.156,0.175,0.257,0.241c0.086,0.075,0.202,0.134,0.327,0.175
				c0.135,0.044,0.267,0.087,0.424,0.107c0.146,0.024,0.321,0.024,0.494,0.024c0.256,0,0.521-0.018,0.823-0.069
				c0.292-0.051,0.624-0.11,0.981-0.207c0.348-0.085,0.719-0.193,1.131-0.338c0.398-0.139,0.83-0.302,1.279-0.483
				c1.561-0.61,3.125-1.218,4.686-1.817c1.557-0.613,3.119-1.218,4.686-1.814c1.559-0.599,3.119-1.187,4.678-1.781
				c1.553-0.593,3.115-1.177,4.662-1.759c0.798-0.292,1.525-0.587,2.176-0.895c0.648-0.312,1.232-0.636,1.757-0.977
				c0.505-0.343,0.954-0.692,1.321-1.056c0.379-0.369,0.695-0.744,0.928-1.133c0.248-0.381,0.465-0.806,0.664-1.269
				c0.206-0.47,0.372-0.979,0.518-1.527c0.141-0.562,0.266-1.151,0.353-1.795c0.093-0.643,0.179-1.317,0.226-2.043
				c0.153-2.233,0.318-4.468,0.469-6.697c0.162-2.227,0.318-4.454,0.484-6.674c0.15-2.211,0.306-4.427,0.465-6.631
				c0.16-2.213,0.316-4.404,0.469-6.602c3.162-1.146,6.326-2.266,9.496-3.368c3.162-1.088,6.316-2.172,9.488-3.222
				c3.166-1.054,6.326-2.081,9.501-3.097c3.172-1.008,6.334-2.002,9.516-2.976c-0.251,4.034-0.505,8.074-0.753,12.131
				c-0.25,4.062-0.5,8.124-0.754,12.196c-0.25,4.085-0.5,8.176-0.759,12.27c-0.245,4.095-0.497,8.21-0.753,12.325
				c-0.073,1.114-0.196,2.224-0.379,3.326c-0.182,1.091-0.412,2.181-0.705,3.26c-0.287,1.074-0.633,2.139-1.039,3.193
				c-0.398,1.054-0.854,2.09-1.373,3.12c-0.506,1.049-1.16,2.025-1.978,2.953c-0.817,0.913-1.786,1.777-2.912,2.579
				c-1.127,0.801-2.417,1.549-3.851,2.237c-1.444,0.691-3.035,1.322-4.777,1.902c-4.797,1.609-9.592,3.274-14.389,4.966
				c-4.793,1.691-9.588,3.438-14.367,5.217c-4.799,1.783-9.589,3.615-14.368,5.488c-4.796,1.88-9.585,3.803-14.37,5.772
				c-0.58,0.229-1.173,0.47-1.758,0.71c-0.58,0.24-1.172,0.471-1.758,0.725c-0.586,0.233-1.167,0.485-1.752,0.726
				c-0.589,0.249-1.184,0.497-1.754,0.744c-1.229,0.507-2.441,1.024-3.65,1.539s-2.42,1.029-3.637,1.551
				c-1.201,0.521-2.4,1.055-3.607,1.591c-1.195,0.528-2.4,1.055-3.594,1.598c-0.84,0.367-1.627,0.689-2.383,0.97
				c-0.745,0.271-1.459,0.512-2.113,0.693c-0.661,0.191-1.282,0.332-1.854,0.433c-0.564,0.092-1.086,0.14-1.561,0.146
				c-0.584-0.042-1.105-0.115-1.578-0.224c-0.465-0.102-0.895-0.243-1.262-0.418c-0.379-0.178-0.704-0.377-0.992-0.618
				c-0.297-0.247-0.549-0.529-0.759-0.835c-0.218-0.304-0.404-0.623-0.574-0.975c-0.163-0.341-0.318-0.714-0.442-1.105
				c-0.125-0.396-0.23-0.808-0.309-1.244c-0.082-0.437-0.148-0.892-0.195-1.356c-0.033-0.474-0.053-0.967-0.06-1.459
				c-0.017-0.5-0.017-1.015-0.011-1.536c0.011-0.526,0.021-1.058,0.057-1.608c0.03-0.548,0.066-1.104,0.12-1.681
				c1.087-12.458,2.179-24.845,3.269-37.165c1.08-12.24,2.152-24.401,3.219-36.503c1.059-12.026,2.111-23.975,3.154-35.86
				c1.039-11.818,2.072-23.556,3.105-35.226c0.043-0.537,0.098-1.06,0.166-1.594c0.066-0.523,0.143-1.063,0.229-1.584
				c0.086-0.533,0.176-1.062,0.279-1.591c0.104-0.53,0.203-1.063,0.318-1.593c0.134-0.536,0.28-1.067,0.436-1.591
				c0.166-0.521,0.352-1.043,0.549-1.542c0.195-0.506,0.408-1.006,0.645-1.491c0.232-0.495,0.48-0.973,0.76-1.453
				c0.275-0.454,0.574-0.925,0.913-1.382c0.321-0.47,0.694-0.925,1.08-1.387c0.396-0.463,0.8-0.915,1.255-1.374
				c0.438-0.458,0.92-0.91,1.418-1.358c0.502-0.451,1.05-0.884,1.645-1.311c0.592-0.422,1.225-0.835,1.913-1.242
				c0.681-0.397,1.405-0.789,2.179-1.169c0.773-0.379,1.588-0.75,2.443-1.108c1.707-0.735,3.418-1.458,5.125-2.175
				c1.711-0.725,3.432-1.432,5.145-2.136c1.718-0.703,3.435-1.402,5.148-2.091c1.711-0.691,3.421-1.375,5.125-2.052
				c2.886-1.133,5.756-2.242,8.635-3.338c2.889-1.091,5.759-2.172,8.645-3.235c2.877-1.064,5.756-2.112,8.64-3.144
				c2.876-1.033,5.759-2.047,8.638-3.054c0.432-0.148,0.854-0.292,1.289-0.443c0.429-0.148,0.854-0.304,1.281-0.458
				c0.428-0.152,0.857-0.301,1.289-0.452c0.429-0.147,0.863-0.292,1.291-0.448c1.267-0.418,2.539-0.84,3.807-1.269
				c1.266-0.422,2.537-0.844,3.804-1.262c1.274-0.414,2.546-0.832,3.81-1.25c1.268-0.41,2.533-0.819,3.796-1.229
				c0.647-0.21,1.266-0.392,1.853-0.548c0.598-0.163,1.16-0.289,1.691-0.398c0.541-0.102,1.059-0.186,1.541-0.238
				C117.078,47.271,117.537,47.245,117.966,47.241z"/>
		</g>
	</g>
	<g>
		<g>
			<path fill="#FFFFFF" d="M253.783,15.1c-0.395,13.888-0.809,27.873-1.222,41.965c-0.402,14.197-0.82,28.5-1.239,42.9
				c-0.418,14.515-0.847,29.128-1.271,43.855c-0.428,14.834-0.871,29.773-1.309,44.818c-3.241,0.477-6.477,0.98-9.719,1.491
				c-3.24,0.515-6.479,1.055-9.717,1.606c-3.234,0.554-6.477,1.127-9.715,1.724c-3.241,0.589-6.486,1.21-9.725,1.838
				c0.183-4.92,0.373-9.828,0.571-14.722c0.189-4.889,0.382-9.766,0.562-14.635c0.193-4.844,0.379-9.688,0.567-14.527
				c0.183-4.818,0.372-9.622,0.556-14.436c-2.883,0.566-5.757,1.14-8.627,1.729c-2.879,0.588-5.744,1.188-8.621,1.802
				c-2.879,0.625-5.746,1.241-8.621,1.892c-2.88,0.643-5.754,1.299-8.633,1.968c-0.227,4.811-0.451,9.631-0.684,14.464
				c-0.229,4.844-0.455,9.7-0.688,14.568c-0.232,4.887-0.469,9.78-0.701,14.697c-0.232,4.915-0.463,9.857-0.697,14.81
				c-3.291,0.77-6.576,1.569-9.861,2.386c-3.29,0.825-6.579,1.669-9.855,2.535c-3.297,0.859-6.574,1.736-9.846,2.646
				c-3.277,0.906-6.562,1.839-9.834,2.782c0.877-15.23,1.73-30.346,2.59-45.35c0.844-14.889,1.681-29.668,2.52-44.34
				c0.843-14.557,1.652-29.011,2.469-43.349c0.814-14.24,1.619-28.376,2.419-42.402c3.125-0.869,6.261-1.723,9.399-2.555
				c3.131-0.826,6.267-1.645,9.402-2.432c3.142-0.792,6.283-1.566,9.426-2.328c3.145-0.754,6.289-1.498,9.441-2.227
				c-0.309,6.257-0.602,12.521-0.896,18.808c-0.295,6.309-0.594,12.645-0.894,18.993c-0.308,6.369-0.608,12.76-0.916,19.179
				c-0.3,6.428-0.604,12.889-0.911,19.357c2.854-0.649,5.697-1.289,8.539-1.921c2.85-0.633,5.689-1.241,8.536-1.854
				c2.847-0.604,5.688-1.192,8.54-1.769c2.838-0.571,5.682-1.141,8.528-1.689c0.255-6.468,0.504-12.916,0.757-19.345
				c0.242-6.398,0.494-12.776,0.744-19.148c0.242-6.335,0.481-12.659,0.732-18.956c0.236-6.277,0.486-12.538,0.719-18.775
				c3.109-0.571,6.211-1.126,9.303-1.666c3.096-0.544,6.191-1.069,9.293-1.572c3.092-0.515,6.193-1.003,9.293-1.477
				C247.59,15.98,250.688,15.522,253.783,15.1z"/>
		</g>
	</g>
	<g>
		<path fill="#FFFFFF" d="M669.691,63.449c4.098,15.351,8.213,30.838,12.361,46.471c4.175,15.762,8.386,31.666,12.617,47.714
			c4.281,16.183,8.578,32.519,12.906,48.992c4.371,16.611,8.768,33.396,13.195,50.321c-2.823-1.259-5.643-2.511-8.463-3.738
			c-2.822-1.236-5.643-2.454-8.469-3.663c-2.834-1.202-5.656-2.391-8.488-3.563c-2.82-1.17-5.654-2.326-8.483-3.456
			c-0.743-3.419-1.478-6.83-2.219-10.239c-0.733-3.386-1.487-6.789-2.226-10.168c-0.727-3.378-1.461-6.757-2.205-10.108
			c-0.733-3.36-1.477-6.709-2.218-10.05c-2.588-1.012-5.185-2.021-7.782-3.006c-2.594-0.979-5.184-1.958-7.781-2.913
			c-2.601-0.958-5.191-1.905-7.785-2.836c-2.598-0.927-5.201-1.84-7.805-2.741c-0.393,2.925-0.781,5.859-1.169,8.797
			c-0.39,2.942-0.778,5.893-1.165,8.848c-0.39,2.961-0.778,5.926-1.176,8.896c-0.393,2.985-0.791,5.959-1.193,8.95
			c-2.873-0.985-5.756-1.955-8.648-2.913c-2.886-0.951-5.762-1.886-8.648-2.808c-2.887-0.919-5.775-1.832-8.668-2.715
			c-2.887-0.886-5.772-1.763-8.643-2.607c2.541-14.221,5.086-28.32,7.602-42.29c2.512-13.876,4.989-27.632,7.457-41.276
			c2.447-13.542,4.866-26.979,7.277-40.289c2.385-13.222,4.756-26.342,7.091-39.344c2.729,0.916,5.466,1.847,8.187,2.793
			c2.73,0.95,5.463,1.913,8.18,2.889c2.733,0.977,5.461,1.973,8.178,2.979C664.24,61.39,666.973,62.411,669.691,63.449z
			 M652.908,161.495c1.332,0.483,2.661,0.977,3.99,1.459c1.324,0.487,2.656,0.975,3.984,1.458c1.328,0.486,2.656,0.978,3.992,1.466
			c1.332,0.5,2.67,0.991,3.998,1.491c-0.869-3.152-1.736-6.297-2.605-9.442c-0.861-3.138-1.721-6.271-2.588-9.398
			c-0.86-3.117-1.717-6.239-2.57-9.351c-0.867-3.102-1.717-6.212-2.578-9.306c-0.462,2.622-0.933,5.246-1.393,7.866
			c-0.47,2.627-0.938,5.251-1.406,7.882c-0.469,2.635-0.943,5.274-1.412,7.919C653.846,156.188,653.384,158.838,652.908,161.495"/>
	</g>
	<g>
		<g>
			<path fill="#FFFFFF" d="M480.713,13.714c3.112,0.437,6.201,0.886,9.3,1.346c3.095,0.465,6.188,0.943,9.279,1.438
				c3.089,0.493,6.177,0.996,9.267,1.529c3.088,0.524,6.174,1.073,9.266,1.634c0.253,6.354,0.525,12.725,0.777,19.113
				c0.266,6.427,0.524,12.856,0.787,19.318c0.266,6.479,0.539,12.981,0.801,19.5c0.27,6.543,0.531,13.118,0.803,19.704
				c2.141,0.4,4.27,0.8,6.395,1.21c2.142,0.41,4.264,0.829,6.393,1.255c2.139,0.428,4.258,0.858,6.391,1.305
				c2.121,0.445,4.25,0.892,6.391,1.358c0.314,0.073,0.63,0.133,0.939,0.189c0.302,0.048,0.578,0.091,0.847,0.128
				c0.286,0.035,0.545,0.066,0.784,0.083c0.255,0.01,0.494,0.025,0.71,0.025c0.31-0.007,0.585-0.025,0.837-0.067
				c0.249-0.037,0.484-0.089,0.686-0.163c0.191-0.07,0.375-0.163,0.53-0.271c0.16-0.108,0.286-0.236,0.399-0.392
				c0.172-0.236,0.321-0.53,0.451-0.892c0.119-0.344,0.229-0.755,0.292-1.217c0.077-0.47,0.113-0.994,0.144-1.572
				c0.016-0.566,0.006-1.208-0.03-1.892c-0.286-5.965-0.571-11.915-0.866-17.842c-0.29-5.898-0.578-11.79-0.861-17.659
				c-0.293-5.854-0.581-11.689-0.871-17.504c-0.287-5.799-0.562-11.586-0.842-17.366c3.102,0.706,6.221,1.41,9.326,2.141
				c3.105,0.726,6.23,1.473,9.328,2.236c3.123,0.759,6.238,1.541,9.332,2.336c3.119,0.805,6.219,1.62,9.324,2.464
				c0.312,5.268,0.621,10.557,0.93,15.855c0.312,5.312,0.621,10.645,0.942,15.989c0.313,5.354,0.628,10.726,0.944,16.118
				c0.314,5.405,0.627,10.82,0.945,16.256c0.253,4.218-0.205,7.836-1.182,10.908c-0.986,3.064-2.48,5.583-4.328,7.566
				c-1.855,1.981-4.045,3.442-6.398,4.404c-2.359,0.965-4.877,1.44-7.363,1.458c-0.402,0-0.802-0.008-1.199-0.03
				c-0.393-0.011-0.795-0.048-1.187-0.1c-0.392-0.04-0.786-0.093-1.175-0.163c-0.386-0.066-0.777-0.141-1.164-0.232
				c0.529,0.158,2.382,0.854,4.896,2.091c2.523,1.232,5.688,3.01,8.824,5.327c3.148,2.325,6.247,5.192,8.639,8.612
				c2.401,3.426,4.082,7.406,4.338,11.951c0.068,1.043,0.129,2.091,0.192,3.146c0.06,1.051,0.126,2.109,0.188,3.155
				c0.057,1.058,0.111,2.105,0.18,3.157c0.062,1.058,0.123,2.112,0.184,3.167c0.086,1.41,0.125,2.191,0.152,2.662
				c0.033,0.465,0.043,0.621,0.053,0.784c0.01,0.156,0.014,0.313,0.047,0.802c0.029,0.482,0.069,1.284,0.152,2.729
				c0.094,1.461,0.176,2.893,0.262,4.308c0.078,1.417,0.158,2.808,0.24,4.176c0.083,1.376,0.163,2.724,0.236,4.056
				c0.082,1.328,0.156,2.632,0.229,3.927c0.083,1.309,0.156,2.579,0.229,3.826c0.089,1.26,0.173,2.483,0.253,3.682
				c0.082,1.194,0.174,2.363,0.254,3.507c0.098,1.148,0.188,2.253,0.279,3.35c0.087,1.094,0.174,2.122,0.256,3.092
				c0.076,0.976,0.143,1.88,0.207,2.735c0.066,0.854,0.115,1.657,0.169,2.393c0.057,0.734,0.093,1.419,0.13,2.03
				c-3.219-0.901-6.438-1.789-9.668-2.657c-3.213-0.868-6.447-1.725-9.675-2.551c-3.226-0.836-6.456-1.649-9.679-2.445
				c-3.234-0.795-6.46-1.572-9.678-2.331c-0.273-4.886-0.538-9.754-0.807-14.612c-0.267-4.849-0.535-9.688-0.797-14.509
				c-0.264-4.808-0.529-9.604-0.791-14.387c-0.262-4.773-0.528-9.536-0.781-14.275c-0.029-0.711-0.09-1.362-0.182-1.981
				c-0.07-0.614-0.166-1.184-0.29-1.712c-0.118-0.523-0.263-1-0.431-1.428c-0.176-0.433-0.355-0.819-0.568-1.155
				c-0.213-0.336-0.492-0.658-0.85-0.954c-0.342-0.293-0.769-0.584-1.27-0.845c-0.488-0.258-1.062-0.499-1.701-0.718
				c-0.641-0.214-1.345-0.407-2.131-0.576c-2.143-0.472-4.291-0.937-6.437-1.385c-2.146-0.448-4.288-0.899-6.44-1.339
				c-2.139-0.433-4.291-0.86-6.439-1.292c-2.146-0.43-4.305-0.84-6.453-1.255c0.223,5.362,0.438,10.748,0.664,16.135
				c0.217,5.405,0.438,10.827,0.668,16.262c0.215,5.447,0.432,10.905,0.66,16.38c0.229,5.489,0.445,10.994,0.67,16.519
				c-3.224-0.628-6.459-1.22-9.693-1.809c-3.232-0.578-6.457-1.138-9.685-1.684c-3.235-0.544-6.478-1.062-9.708-1.576
				c-3.242-0.493-6.483-0.981-9.725-1.445c-0.389-12.442-0.777-24.819-1.152-37.123c-0.389-12.219-0.765-24.36-1.143-36.429
				c-0.369-11.993-0.74-23.919-1.116-35.771c-0.366-11.782-0.733-23.493-1.096-35.134c-0.083-2.524-0.157-5.052-0.235-7.564
				c-0.078-2.516-0.156-5.032-0.236-7.534c-0.078-2.507-0.16-5.014-0.232-7.514C480.875,18.7,480.789,16.203,480.713,13.714z"/>
		</g>
	</g>
	<g>
		<g>
			<path fill="#FFFFFF" d="M394.096,7.211c0.073,0,0.156-0.003,0.238-0.003c0.074-0.007,0.154-0.007,0.24-0.007
				c0.082,0.01,0.159,0.01,0.245,0.012c0.077-0.001,0.163,0.003,0.247,0.003c1.298,0.058,2.59,0.111,3.885,0.163
				c1.295,0.058,2.586,0.111,3.893,0.172c1.295,0.05,2.59,0.115,3.883,0.175c1.291,0.06,2.594,0.126,3.889,0.192
				c2.176,0.114,4.357,0.229,6.533,0.364c2.176,0.129,4.357,0.269,6.535,0.42c2.18,0.146,4.358,0.308,6.54,0.472
				c2.179,0.172,4.36,0.347,6.536,0.54c0.342,0.019,0.668,0.043,1.004,0.067c0.321,0.021,0.66,0.048,0.986,0.073
				c0.325,0.026,0.654,0.053,0.979,0.09c0.326,0.025,0.672,0.058,0.997,0.096c0.967,0.078,1.927,0.156,2.896,0.254
				c0.961,0.083,1.928,0.176,2.893,0.271c0.964,0.086,1.924,0.181,2.894,0.277c0.97,0.093,1.923,0.179,2.89,0.282
				c0.66,0.076,1.292,0.158,1.87,0.266c0.591,0.111,1.151,0.234,1.667,0.377c0.514,0.145,1,0.304,1.444,0.471
				c0.438,0.182,0.841,0.369,1.212,0.565c0.386,0.214,0.737,0.44,1.074,0.677c0.328,0.241,0.633,0.492,0.933,0.753
				c0.285,0.262,0.54,0.536,0.788,0.82c0.241,0.282,0.461,0.578,0.66,0.88c0.18,0.319,0.346,0.629,0.51,0.956
				c0.164,0.326,0.303,0.651,0.437,0.987c0.14,0.333,0.253,0.667,0.353,1.015c0.105,0.34,0.188,0.692,0.248,1.048
				c0.08,0.344,0.146,0.694,0.207,1.053c0.053,0.358,0.096,0.714,0.146,1.082c0.029,0.361,0.065,0.735,0.089,1.114
				c0.022,0.38,0.043,0.75,0.057,1.133c0.083,3.426,0.179,6.857,0.274,10.297c0.084,3.431,0.18,6.883,0.27,10.334
				c0.094,3.457,0.193,6.917,0.285,10.387c0.094,3.476,0.18,6.944,0.276,10.42c-2.378-0.263-4.763-0.533-7.138-0.781
				c-2.378-0.259-4.755-0.508-7.133-0.755c-2.375-0.237-4.756-0.47-7.132-0.691c-2.378-0.228-4.749-0.438-7.12-0.644
				c-0.03-1.563-0.066-3.121-0.097-4.688c-0.029-1.554-0.062-3.109-0.093-4.67c-0.026-1.562-0.06-3.124-0.09-4.678
				c-0.033-1.551-0.062-3.115-0.082-4.678c-0.018-0.501-0.037-0.969-0.084-1.398c-0.037-0.428-0.103-0.832-0.179-1.194
				c-0.081-0.364-0.177-0.693-0.292-0.989c-0.113-0.294-0.24-0.559-0.398-0.795c-0.137-0.21-0.326-0.415-0.588-0.589
				c-0.243-0.175-0.545-0.337-0.911-0.474c-0.354-0.136-0.767-0.244-1.235-0.34c-0.459-0.096-0.977-0.156-1.551-0.211
				c-1.129-0.082-2.259-0.163-3.395-0.244c-1.129-0.079-2.258-0.163-3.4-0.238c-1.127-0.081-2.266-0.157-3.404-0.236
				c-1.139-0.071-2.289-0.147-3.432-0.214c-0.082-0.008-0.169-0.008-0.249-0.015c-0.083-0.001-0.169-0.005-0.249-0.005
				c-0.072-0.003-0.155-0.007-0.242-0.003c-0.073-0.01-0.148-0.01-0.227-0.01c-0.42,0.01-0.807,0.037-1.158,0.083
				c-0.35,0.05-0.661,0.113-0.928,0.208c-0.274,0.09-0.51,0.208-0.706,0.337c-0.2,0.138-0.358,0.289-0.476,0.463
				c-0.143,0.203-0.275,0.443-0.379,0.729c-0.104,0.272-0.188,0.588-0.26,0.94c-0.059,0.353-0.105,0.742-0.131,1.166
				c-0.031,0.425-0.041,0.895-0.041,1.395c0.014,0.76,0.031,1.52,0.031,2.278c0.01,0.759,0.028,1.521,0.035,2.275
				c0.007,0.76,0.023,1.521,0.03,2.273c0.007,0.757,0.017,1.513,0.03,2.267c0.006,0.801,0.017,1.604,0.029,2.406
				c0.016,0.804,0.016,1.603,0.033,2.406c0.014,0.802,0.027,1.597,0.037,2.399c0.007,0.795,0.017,1.593,0.033,2.383
				c0.007,0.774,0.014,1.536,0.03,2.306c0.003,0.766,0.01,1.535,0.028,2.302c0.004,0.762,0.01,1.534,0.033,2.291
				c0.004,0.769,0.014,1.527,0.027,2.28c0,0.47,0.029,0.917,0.076,1.327c0.037,0.409,0.104,0.795,0.176,1.144
				c0.084,0.347,0.18,0.669,0.297,0.949c0.109,0.287,0.231,0.54,0.371,0.762c0.146,0.242,0.355,0.446,0.615,0.63
				c0.265,0.183,0.574,0.341,0.946,0.471c0.375,0.129,0.798,0.237,1.272,0.322c0.475,0.082,1.006,0.138,1.586,0.174
				c3,0.178,5.988,0.377,8.994,0.589c3,0.209,6.002,0.44,8.994,0.688c3.01,0.247,5.996,0.515,8.998,0.792
				c2.992,0.277,5.984,0.581,8.963,0.883c0.678,0.075,1.31,0.16,1.904,0.274c0.598,0.103,1.145,0.232,1.67,0.377
				c0.531,0.147,1.016,0.311,1.48,0.488c0.453,0.174,0.871,0.378,1.256,0.601c0.369,0.218,0.725,0.458,1.053,0.699
				c0.34,0.248,0.648,0.51,0.934,0.777c0.293,0.277,0.555,0.558,0.811,0.85c0.238,0.296,0.455,0.596,0.648,0.91
				c0.195,0.326,0.378,0.66,0.533,1c0.166,0.332,0.312,0.672,0.455,1.009c0.127,0.341,0.249,0.685,0.35,1.036
				c0.103,0.353,0.186,0.703,0.252,1.058c0.084,0.374,0.152,0.741,0.213,1.121c0.053,0.374,0.106,0.755,0.14,1.132
				c0.047,0.385,0.083,0.771,0.106,1.163c0.025,0.389,0.035,0.784,0.057,1.181c0.068,3.061,0.155,6.116,0.244,9.188
				c0.081,3.083,0.164,6.161,0.246,9.255c0.084,3.095,0.17,6.201,0.25,9.306c0.079,3.116,0.169,6.234,0.246,9.35
				c0.012,0.488,0.029,0.97,0.043,1.458c0.01,0.488,0.023,0.977,0.037,1.458c0.012,0.488,0.033,0.966,0.043,1.458
				c0.006,0.488,0.025,0.97,0.029,1.458c0.096,3.109,0.172,6.23,0.259,9.346c0.077,3.126,0.167,6.259,0.253,9.399
				c0.079,3.145,0.162,6.295,0.249,9.454c0.083,3.16,0.165,6.332,0.255,9.507c0.018,0.417,0.018,0.832,0.008,1.235
				c0,0.404-0.008,0.807-0.037,1.207c-0.018,0.402-0.051,0.799-0.084,1.191c-0.035,0.392-0.092,0.789-0.151,1.174
				c-0.054,0.387-0.137,0.76-0.216,1.103c-0.098,0.357-0.199,0.695-0.312,1.017c-0.117,0.322-0.252,0.633-0.393,0.925
				c-0.149,0.292-0.309,0.57-0.484,0.833c-0.189,0.275-0.408,0.541-0.638,0.788c-0.235,0.241-0.498,0.464-0.786,0.671
				c-0.287,0.209-0.6,0.402-0.941,0.577c-0.331,0.178-0.697,0.337-1.083,0.478c-0.231,0.088-0.487,0.172-0.743,0.232
				c-0.276,0.067-0.559,0.121-0.854,0.169c-0.303,0.045-0.611,0.083-0.95,0.104c-0.319,0.025-0.675,0.03-1.033,0.034
				c-0.212,0-0.441,0-0.663-0.003c-0.217-0.002-0.456-0.015-0.699-0.03c-0.235-0.008-0.477-0.026-0.727-0.051
				c-0.242-0.023-0.491-0.05-0.746-0.072c-3.637-0.392-7.258-0.762-10.898-1.102c-3.627-0.347-7.26-0.658-10.889-0.958
				c-3.625-0.286-7.268-0.555-10.891-0.795c-3.641-0.248-7.268-0.47-10.908-0.669c-0.432-0.019-0.859-0.048-1.281-0.072
				c-0.436-0.018-0.857-0.048-1.282-0.077c-0.432-0.014-0.856-0.044-1.278-0.067c-0.436-0.025-0.857-0.05-1.296-0.08
				c-0.923-0.048-1.847-0.09-2.769-0.131c-0.925-0.048-1.857-0.085-2.787-0.122c-0.93-0.042-1.863-0.075-2.784-0.111
				c-0.931-0.033-1.856-0.074-2.772-0.111c-0.681-0.025-1.332-0.067-1.953-0.126c-0.607-0.066-1.18-0.151-1.734-0.266
				c-0.537-0.106-1.031-0.241-1.508-0.398c-0.467-0.156-0.899-0.337-1.295-0.548c-0.379-0.192-0.734-0.385-1.072-0.614
				c-0.336-0.211-0.645-0.445-0.934-0.689c-0.295-0.248-0.564-0.507-0.807-0.784c-0.253-0.274-0.461-0.558-0.658-0.867
				c-0.195-0.281-0.381-0.588-0.547-0.908c-0.16-0.312-0.312-0.638-0.439-0.981c-0.132-0.349-0.245-0.699-0.342-1.073
				c-0.104-0.367-0.195-0.759-0.262-1.154c-0.054-0.385-0.113-0.781-0.167-1.174c-0.044-0.396-0.09-0.802-0.124-1.203
				c-0.035-0.41-0.064-0.816-0.088-1.229c-0.023-0.41-0.029-0.817-0.037-1.235c-0.023-3.645-0.047-7.287-0.07-10.924
				c-0.016-3.626-0.035-7.255-0.062-10.872c-0.02-3.614-0.043-7.223-0.061-10.819c-0.025-3.604-0.042-7.194-0.066-10.779
				c2.426,0.048,4.834,0.103,7.261,0.181c2.425,0.072,4.847,0.153,7.268,0.241c2.417,0.097,4.829,0.199,7.257,0.326
				c2.408,0.114,4.825,0.241,7.229,0.394c0.023,1.598,0.047,3.192,0.061,4.788c0.022,1.603,0.046,3.205,0.073,4.802
				c0.01,1.599,0.033,3.205,0.062,4.808c0.021,1.609,0.044,3.212,0.062,4.833c0,0.533,0.023,1.021,0.07,1.486
				c0.047,0.46,0.096,0.881,0.18,1.267c0.076,0.387,0.173,0.735,0.285,1.049c0.113,0.304,0.253,0.584,0.408,0.812
				c0.152,0.229,0.362,0.429,0.615,0.613c0.266,0.186,0.578,0.344,0.939,0.473c0.359,0.138,0.791,0.246,1.256,0.331
				c0.48,0.088,1.014,0.148,1.59,0.188c0.525,0.03,1.043,0.066,1.576,0.1c0.531,0.032,1.055,0.063,1.576,0.09
				c0.52,0.034,1.039,0.063,1.564,0.093c0.516,0.037,1.039,0.073,1.551,0.103l1.494,0.104c0.529,0.053,1.064,0.101,1.582,0.141
				c0.527,0.042,1.057,0.087,1.574,0.123c0.525,0.04,1.053,0.084,1.568,0.118c0.521,0.042,1.035,0.079,1.551,0.118
				c0.109,0.008,0.23,0.011,0.338,0.026c0.117,0.003,0.223,0.015,0.332,0.015c0.109,0.003,0.217,0.011,0.318,0.011
				c0.098,0,0.206,0,0.296,0c0.413-0.005,0.767-0.03,1.097-0.071c0.332-0.043,0.621-0.115,0.873-0.203
				c0.26-0.093,0.484-0.201,0.668-0.333c0.182-0.13,0.326-0.286,0.432-0.458c0.149-0.204,0.279-0.455,0.379-0.744
				c0.112-0.3,0.192-0.636,0.256-1.003c0.062-0.373,0.115-0.784,0.143-1.24c0.023-0.453,0.029-0.95,0.023-1.476
				c-0.023-1.109-0.043-2.23-0.066-3.345c-0.023-1.121-0.044-2.242-0.074-3.363c-0.013-1.117-0.039-2.238-0.06-3.361
				c-0.017-1.117-0.043-2.241-0.066-3.366c-0.011-0.485-0.013-0.97-0.022-1.455c-0.014-0.485-0.021-0.965-0.027-1.453
				c-0.02-0.49-0.029-0.973-0.033-1.458c-0.002-0.481-0.025-0.963-0.029-1.451c-0.018-1.133-0.043-2.266-0.066-3.393
				c-0.018-1.133-0.037-2.272-0.066-3.397c-0.02-1.14-0.037-2.272-0.064-3.399c-0.021-1.129-0.045-2.259-0.068-3.376
				c-0.007-0.521-0.037-1.006-0.073-1.454c-0.05-0.448-0.11-0.858-0.188-1.237c-0.078-0.374-0.178-0.717-0.287-1.021
				c-0.122-0.311-0.256-0.581-0.414-0.824c-0.146-0.228-0.355-0.426-0.611-0.614c-0.252-0.18-0.57-0.342-0.939-0.482
				c-0.365-0.144-0.788-0.266-1.26-0.361c-0.478-0.093-1.006-0.168-1.601-0.216c-3.022-0.236-6.058-0.452-9.083-0.651
				c-3.029-0.204-6.061-0.395-9.067-0.566c-3.029-0.171-6.052-0.319-9.069-0.461c-3.023-0.141-6.042-0.256-9.071-0.355
				c-0.671-0.023-1.312-0.075-1.896-0.134c-0.6-0.062-1.173-0.158-1.691-0.266c-0.518-0.112-1.014-0.238-1.465-0.386
				c-0.451-0.151-0.877-0.317-1.262-0.498c-0.375-0.201-0.73-0.405-1.07-0.623c-0.328-0.217-0.633-0.44-0.916-0.685
				c-0.285-0.237-0.551-0.485-0.783-0.737c-0.232-0.259-0.445-0.524-0.635-0.802c-0.199-0.296-0.379-0.591-0.531-0.895
				c-0.17-0.311-0.312-0.623-0.436-0.955c-0.137-0.325-0.246-0.656-0.335-1.018c-0.106-0.352-0.19-0.717-0.267-1.099
				c-0.057-0.389-0.105-0.769-0.152-1.154c-0.046-0.386-0.09-0.771-0.13-1.158c-0.036-0.382-0.063-0.777-0.079-1.169
				c-0.023-0.389-0.043-0.782-0.043-1.174c-0.01-2.711-0.027-5.417-0.041-8.117c-0.02-2.692-0.043-5.386-0.049-8.071
				c-0.018-2.684-0.037-5.355-0.051-8.034c-0.02-2.664-0.029-5.325-0.045-7.984c-0.008-0.801-0.018-1.608-0.018-2.41
				c0-0.804-0.006-1.608-0.013-2.409c-0.01-0.795-0.014-1.597-0.014-2.393c0-0.797-0.007-1.588-0.017-2.376
				c-0.014-2.667-0.029-5.329-0.046-7.981c-0.015-2.65-0.034-5.304-0.052-7.953c-0.012-2.645-0.035-5.279-0.042-7.922
				c-0.024-2.642-0.036-5.279-0.043-7.911c-0.004-0.369,0-0.742,0.019-1.109c0.015-0.367,0.031-0.732,0.066-1.096
				c0.024-0.362,0.068-0.721,0.114-1.072c0.044-0.362,0.089-0.706,0.14-1.046c0.062-0.346,0.148-0.686,0.235-1.015
				c0.097-0.325,0.202-0.65,0.319-0.964c0.119-0.312,0.258-0.626,0.414-0.918c0.156-0.304,0.323-0.588,0.51-0.87
				c0.182-0.281,0.395-0.548,0.623-0.787c0.229-0.256,0.486-0.49,0.761-0.708c0.272-0.222,0.571-0.429,0.894-0.626
				c0.322-0.188,0.658-0.369,1.023-0.537c0.318-0.132,0.674-0.254,1.053-0.362c0.385-0.103,0.797-0.189,1.223-0.266
				c0.441-0.071,0.906-0.13,1.395-0.168C393.043,7.23,393.559,7.212,394.096,7.211z"/>
		</g>
	</g>
</g>
</svg>
